<svg xmlns="http://www.w3.org/2000/svg" width="41" height="40" viewBox="0 0 41 40">
    <g fill="none" fill-rule="evenodd" transform="translate(.667)">
        <rect width="40" height="40" fill="#DC4B39" fill-rule="nonzero" rx="5"/>
        <g fill="#FFF">
            <path d="M27.5 18.733V16.2h-1.25v2.533h-2.5V20h2.5v2.533h1.25V20H30v-1.267zM16.25 18.733v2.534h3.536C19.27 22.74 17.88 23.8 16.25 23.8c-2.067 0-3.75-1.705-3.75-3.8 0-2.095 1.683-3.8 3.75-3.8.896 0 1.759.326 2.429.917l1.642-1.91a6.146 6.146 0 0 0-4.071-1.54c-3.446 0-6.25 2.84-6.25 6.333 0 3.492 2.804 6.333 6.25 6.333S22.5 23.493 22.5 20v-1.267h-6.25z"/>
        </g>
    </g>
</svg>
