<svg xmlns="http://www.w3.org/2000/svg" width="41" height="40" viewBox="0 0 41 40">
    <g fill="none" fill-rule="evenodd" transform="translate(.333)">
        <rect width="40" height="40" fill="#62C5F7" fill-rule="nonzero" rx="5"/>
        <path fill="#FFF" d="M30 13.934a8.514 8.514 0 0 1-2.363.65 4.094 4.094 0 0 0 1.804-2.277 8.169 8.169 0 0 1-2.6.997A4.099 4.099 0 0 0 23.846 12c-2.27 0-4.097 1.852-4.097 4.122 0 .327.027.641.095.94-3.409-.167-6.425-1.81-8.452-4.31a4.133 4.133 0 0 0 1.26 5.508 4.033 4.033 0 0 1-1.852-.508v.045a4.135 4.135 0 0 0 3.285 4.05 4.073 4.073 0 0 1-1.075.135c-.262 0-.527-.015-.776-.07.531 1.632 2.039 2.832 3.831 2.87a8.212 8.212 0 0 1-5.084 1.758c-.336 0-.658-.015-.981-.056a11.5 11.5 0 0 0 6.29 1.85c7.545 0 11.67-6.283 11.67-11.728 0-.182-.006-.358-.015-.533A8.203 8.203 0 0 0 30 13.933z"/>
    </g>
</svg>
